<?xml version="1.0" encoding="UTF-8"?>
<svg width="206px" height="68px" viewBox="0 0 206 68" version="1.1" xmlns="http://www.w3.org/2000/svg" xmlns:xlink="http://www.w3.org/1999/xlink">
    <!-- Generator: Sketch 49 (51002) - http://www.bohemiancoding.com/sketch -->
    <title>logo</title>
    <desc>Created with Sketch.</desc>
    <defs></defs>
    <g id="Site" stroke="none" stroke-width="1" fill="none" fill-rule="evenodd">
        <g id="Group-5-Copy" fill="#FFFFFF">
            <path d="M62.0815297,15.0947182 C65.6499263,20.4535871 67.729509,26.8889373 67.729509,33.81 C67.729509,52.4827474 52.5922564,67.62 33.919509,67.62 C25.1664056,67.62 17.1901892,64.2937512 11.1859077,58.8363014 C13.9705467,55.8400715 15.6543594,53.584074 16.2373459,52.0683091 C17.373118,49.1153017 19.1525324,44.3797634 21.5755892,37.8616943 L21.5756269,37.8617083 C21.7162827,37.4833414 22.0773834,37.2323341 22.4810486,37.2323341 L28.8834785,37.2323341 C29.2784803,37.2323341 29.633687,36.9918475 29.780387,36.6250975 L31.905587,31.3120976 C32.1037265,30.8167487 31.8627908,30.2545652 31.3674418,30.0564256 C31.2533376,30.0107839 31.1315724,29.9873341 31.0086784,29.9873341 L25.6587251,29.9873341 C25.125218,29.9873341 24.6927251,29.5548411 24.6927251,29.021334 C24.6927251,28.9043512 24.7139736,28.7883411 24.7554361,28.6789526 L26.4031168,24.3319528 C26.5453938,23.95659 26.9049835,23.7083341 27.3064059,23.7083341 L43.8382678,23.7083341 C44.2423157,23.7083341 44.6036776,23.4568679 44.744075,23.0779969 L47.4441548,15.7916629 C47.6295363,15.2913994 47.374274,14.7355744 46.8740105,14.5501929 C46.7665778,14.5103818 46.6529195,14.49 46.5383476,14.49 L19.0435616,14.49 C18.6301319,14.49 18.2625341,14.7530944 18.1291877,15.1444292 L5.51670507,52.1585562 C2.09571775,46.8738949 0.109508988,40.5738994 0.109508988,33.81 C0.109508988,15.1372526 15.2467616,0 33.919509,0 C42.524648,0 50.3789433,3.21474398 56.3469324,8.50876945 C53.594452,11.4761067 51.9286039,13.7127558 51.3493881,15.218717 C50.213616,18.1717244 48.4342016,22.9072626 46.0111448,29.4253318 L46.0111071,29.4253177 C45.8704513,29.8036847 45.5093506,30.054692 45.1056854,30.054692 L38.7032555,30.054692 C38.3082537,30.054692 37.953047,30.2951786 37.806347,30.6619286 L35.681147,35.9749285 C35.4830075,36.4702774 35.7239433,37.0324609 36.2192922,37.2306004 C36.3333964,37.2762421 36.4551616,37.299692 36.5780556,37.299692 L41.9280089,37.299692 C42.461516,37.299692 42.894009,37.7321849 42.894009,38.265692 C42.894009,38.3826749 42.8727604,38.4986849 42.8312979,38.6080734 L41.1836172,42.9550733 C41.0413402,43.330436 40.6817505,43.578692 40.2803281,43.578692 L23.7484662,43.578692 C23.3444184,43.578692 22.9830564,43.8301582 22.842659,44.2090292 L20.1425792,51.4953632 C19.9571977,51.9956266 20.21246,52.5514517 20.7127235,52.7368331 C20.8201562,52.7766442 20.9338145,52.7970261 21.0483864,52.7970261 L48.5431724,52.7970261 C48.9566021,52.7970261 49.3241999,52.5339316 49.4575463,52.1425969 L62.0815297,15.0947182 Z" id="Combined-Shape"></path>
            <g id="Group-6" transform="translate(78.407000, 14.651000)">
                <path d="M16.160243,0.66654 L16.160243,4.232529 L5.47893951,4.232529 L5.47893951,11.364507 L14.493893,11.364507 L14.493893,14.9471595 L5.47893951,14.9471595 L5.47893951,24.761961 L0.963131011,24.761961 L0.963131011,0.66654 L16.160243,0.66654 Z M17.3322425,24.761961 L17.3322425,7.66521 L19.74845,7.66521 C20.1705941,7.66521 20.4649797,7.74297222 20.6316155,7.898499 C20.7982514,8.05402578 20.9093403,8.32063911 20.9648855,8.698347 L21.214838,10.764621 C21.8258361,9.70926072 22.5423594,8.87609405 23.3644295,8.265096 C24.1864996,7.65409795 25.1085374,7.3486035 26.1305705,7.3486035 C26.9748588,7.3486035 27.6747188,7.54300906 28.2301715,7.931826 L27.6969395,11.0145735 C27.6636124,11.2145365 27.5914046,11.3561748 27.480314,11.4394928 C27.3692235,11.5228107 27.2192535,11.564469 27.0303995,11.564469 C26.8637637,11.564469 26.6360315,11.5255879 26.347196,11.4478245 C26.0583606,11.3700611 25.6751039,11.33118 25.1974145,11.33118 C24.3420173,11.33118 23.6088306,11.5672439 22.9978325,12.0393788 C22.3868345,12.5115136 21.8702711,13.2030419 21.448127,14.1139845 L21.448127,24.761961 L17.3322425,24.761961 Z M36.9007461,7.398594 C37.9783244,7.398594 38.9697928,7.57078178 39.8751808,7.9151625 C40.7805688,8.25954322 41.5609683,8.76222045 42.2164026,9.42320925 C42.8718368,10.0841981 43.3828457,10.8951469 43.7494446,11.8560803 C44.1160434,12.8170136 44.2993401,13.9140163 44.2993401,15.1471215 C44.2993401,15.4581751 44.2854539,15.7164567 44.2576813,15.9219743 C44.2299087,16.1274918 44.1799187,16.2885707 44.1077098,16.4052158 C44.0355009,16.5218608 43.9382982,16.6051775 43.8160986,16.6551683 C43.6938989,16.705159 43.5383745,16.730154 43.3495206,16.730154 L32.7848616,16.730154 C32.9070612,18.4853848 33.3791889,19.7740159 34.2012591,20.596086 C35.0233292,21.4181561 36.1120003,21.829185 37.4673051,21.829185 C38.1338484,21.829185 38.7087334,21.7514228 39.1919773,21.595896 C39.6752212,21.4403692 40.097359,21.2681814 40.4584033,21.0793275 C40.8194476,20.8904736 41.1360509,20.7182858 41.4082228,20.562759 C41.6803947,20.4072322 41.9442308,20.32947 42.1997391,20.32947 C42.3663749,20.32947 42.5107904,20.3627967 42.6329901,20.429451 C42.7551897,20.4961053 42.8607241,20.5905309 42.9495966,20.7127305 L44.1493686,22.2124455 C43.6938973,22.7456802 43.1828884,23.1928129 42.6163266,23.5538573 C42.0497647,23.9149016 41.4582164,24.2037327 40.8416638,24.4203593 C40.2251112,24.6369858 39.597459,24.7897331 38.9586883,24.8786055 C38.3199176,24.9674779 37.7005971,25.0119135 37.1007081,25.0119135 C35.9120391,25.0119135 34.8067047,24.8147307 33.7846716,24.4203593 C32.7626384,24.0259878 31.8739273,23.4427711 31.1185116,22.6706918 C30.3630958,21.8986124 29.7687702,20.9432479 29.3355171,19.8045698 C28.9022639,18.6658916 28.6856406,17.346711 28.6856406,15.8469885 C28.6856406,14.6805377 28.8744917,13.5835349 29.2521996,12.5559473 C29.6299074,11.5283596 30.1714658,10.6340941 30.8768908,9.87312375 C31.5823158,9.11215345 32.4432547,8.50949622 33.4597333,8.065134 C34.4762119,7.62077178 35.6232047,7.398594 36.9007461,7.398594 Z M36.9840636,10.3480335 C35.7842856,10.3480335 34.8455844,10.6868546 34.1679321,11.364507 C33.4902797,12.0421594 33.057033,13.0030783 32.8681791,14.2472925 L40.6000431,14.2472925 C40.6000431,13.7140578 40.5278353,13.2113806 40.3834176,12.7392458 C40.2389998,12.2671109 40.0168221,11.8533048 39.7168776,11.497815 C39.4169331,11.1423252 39.0392308,10.8618258 38.5837596,10.6563083 C38.1282883,10.4507907 37.5950616,10.3480335 36.9840636,10.3480335 Z M53.6031276,7.398594 C54.680706,7.398594 55.6721743,7.57078178 56.5775623,7.9151625 C57.4829504,8.25954322 58.2633498,8.76222045 58.9187841,9.42320925 C59.5742184,10.0841981 60.0852272,10.8951469 60.4518261,11.8560803 C60.8184249,12.8170136 61.0017216,13.9140163 61.0017216,15.1471215 C61.0017216,15.4581751 60.9878355,15.7164567 60.9600628,15.9219743 C60.9322902,16.1274918 60.8823002,16.2885707 60.8100913,16.4052158 C60.7378825,16.5218608 60.6406797,16.6051775 60.5184801,16.6551683 C60.3962805,16.705159 60.240756,16.730154 60.0519021,16.730154 L49.4872431,16.730154 C49.6094427,18.4853848 50.0815705,19.7740159 50.9036406,20.596086 C51.7257107,21.4181561 52.8143818,21.829185 54.1696866,21.829185 C54.8362299,21.829185 55.4111149,21.7514228 55.8943588,21.595896 C56.3776027,21.4403692 56.7997405,21.2681814 57.1607848,21.0793275 C57.5218291,20.8904736 57.8384325,20.7182858 58.1106043,20.562759 C58.3827762,20.4072322 58.6466123,20.32947 58.9021206,20.32947 C59.0687564,20.32947 59.213172,20.3627967 59.3353716,20.429451 C59.4575712,20.4961053 59.5631056,20.5905309 59.6519781,20.7127305 L60.8517501,22.2124455 C60.3962788,22.7456802 59.8852699,23.1928129 59.3187081,23.5538573 C58.7521462,23.9149016 58.1605979,24.2037327 57.5440453,24.4203593 C56.9274927,24.6369858 56.2998405,24.7897331 55.6610698,24.8786055 C55.0222991,24.9674779 54.4029786,25.0119135 53.8030896,25.0119135 C52.6144206,25.0119135 51.5090862,24.8147307 50.4870531,24.4203593 C49.46502,24.0259878 48.5763089,23.4427711 47.8208931,22.6706918 C47.0654773,21.8986124 46.4711517,20.9432479 46.0378986,19.8045698 C45.6046454,18.6658916 45.3880221,17.346711 45.3880221,15.8469885 C45.3880221,14.6805377 45.5768732,13.5835349 45.9545811,12.5559473 C46.332289,11.5283596 46.8738473,10.6340941 47.5792723,9.87312375 C48.2846974,9.11215345 49.1456362,8.50949622 50.1621148,8.065134 C51.1785934,7.62077178 52.3255862,7.398594 53.6031276,7.398594 Z M53.6864451,10.3480335 C52.4866671,10.3480335 51.547966,10.6868546 50.8703136,11.364507 C50.1926612,12.0421594 49.7594145,13.0030783 49.5705606,14.2472925 L57.3024246,14.2472925 C57.3024246,13.7140578 57.2302168,13.2113806 57.0857991,12.7392458 C56.9413814,12.2671109 56.7192036,11.8533048 56.4192591,11.497815 C56.1193146,11.1423252 55.7416124,10.8618258 55.2861411,10.6563083 C54.8306698,10.4507907 54.2974431,10.3480335 53.6864451,10.3480335 Z M73.3882566,10.99791 C73.277166,11.1756549 73.1605227,11.3006299 73.0383231,11.3728388 C72.9161235,11.4450476 72.760599,11.4811515 72.5717451,11.4811515 C72.3717821,11.4811515 72.157936,11.4256071 71.9302004,11.3145165 C71.7024647,11.2034259 71.4386286,11.0784509 71.1386841,10.9395878 C70.8387396,10.8007246 70.4971413,10.6757496 70.1138789,10.564659 C69.7306164,10.4535684 69.2779292,10.398024 68.7558036,10.398024 C67.9448425,10.398024 67.3060814,10.5702118 66.8395011,10.9145925 C66.3729208,11.2589732 66.1396341,11.7088832 66.1396341,12.264336 C66.1396341,12.6309348 66.2590547,12.9392065 66.4978994,13.1891603 C66.736744,13.439114 67.0533474,13.6585146 67.4477189,13.8473685 C67.8420903,14.0362224 68.2892231,14.205633 68.7891306,14.3556053 C69.2890381,14.5055775 69.800047,14.6694336 70.3221726,14.8471785 C70.8442982,15.0249234 71.3553071,15.2276606 71.8552146,15.4553963 C72.3551221,15.6831319 72.8022549,15.971963 73.1966264,16.3218983 C73.5909978,16.6718335 73.9076012,17.0911941 74.1464459,17.5799925 C74.3852905,18.0687909 74.5047111,18.6575621 74.5047111,19.3463235 C74.5047111,20.1683936 74.3547411,20.9265753 74.0547966,21.6208913 C73.7548521,22.3152072 73.316051,22.9150872 72.7383801,23.4205493 C72.1607092,23.9260113 71.4469631,24.3203768 70.5971204,24.6036578 C69.7472776,24.8869387 68.7724726,25.028577 67.6726761,25.028577 C67.0838962,25.028577 66.5090112,24.9758098 65.9480039,24.8702738 C65.3869965,24.7647377 64.8482154,24.6175449 64.3316444,24.428691 C63.8150733,24.2398371 63.337391,24.0176593 62.8985834,23.762151 C62.4597757,23.5066427 62.0737418,23.2289205 61.7404701,22.928976 L62.6902896,21.362607 C62.8124892,21.1737531 62.9569048,21.0293375 63.1235406,20.929356 C63.2901764,20.8293745 63.5012453,20.7793845 63.7567536,20.7793845 C64.0122619,20.7793845 64.2538802,20.8515923 64.4816159,20.99601 C64.7093515,21.1404277 64.9731876,21.2959522 65.2731321,21.462588 C65.5730766,21.6292238 65.9257838,21.7847483 66.3312644,21.929166 C66.7367449,22.0735837 67.250531,22.1457915 67.8726381,22.1457915 C68.3614365,22.1457915 68.7807971,22.0874698 69.1307324,21.9708248 C69.4806676,21.8541797 69.7694987,21.7014324 69.9972344,21.5125785 C70.22497,21.3237246 70.3916033,21.104324 70.4971394,20.8543703 C70.6026754,20.6044165 70.6554426,20.3461348 70.6554426,20.0795175 C70.6554426,19.6795915 70.536022,19.3518793 70.2971774,19.096371 C70.0583327,18.8408627 69.7417293,18.6186849 69.3473579,18.429831 C68.9529864,18.2409771 68.5030764,18.0715665 67.9976144,17.9215943 C67.4921523,17.771622 66.975589,17.6077659 66.4479089,17.430021 C65.9202287,17.2522761 65.4036654,17.0439844 64.8982034,16.8051398 C64.3927413,16.5662951 63.9428313,16.2635778 63.5484599,15.896979 C63.1540884,15.5303802 62.837485,15.0804702 62.5986404,14.5472355 C62.3597957,14.0140008 62.2403751,13.3696853 62.2403751,12.6142695 C62.2403751,11.914399 62.3792362,11.2478657 62.6569626,10.6146495 C62.934689,9.98143333 63.3429407,9.42876611 63.8817299,8.95663125 C64.420519,8.48449639 65.0926068,8.10679417 65.8980134,7.82351325 C66.7034199,7.54023233 67.6337893,7.398594 68.6891496,7.398594 C69.8667095,7.398594 70.9387173,7.59299956 71.9052051,7.9818165 C72.8716929,8.37063344 73.6770874,8.88164233 74.3214126,9.5148585 L73.3882566,10.99791 Z M82.3087836,25.028577 C80.8312792,25.028577 79.6926181,24.6092164 78.8927661,23.7704827 C78.0929141,22.9317491 77.6929941,21.7736474 77.6929941,20.296143 L77.6929941,10.7479575 L75.9599901,10.7479575 C75.737809,10.7479575 75.5461807,10.6757497 75.3850994,10.531332 C75.2240181,10.3869143 75.1434786,10.1702909 75.1434786,9.8814555 L75.1434786,8.2484325 L77.8929561,7.798518 L78.7594581,3.132738 C78.8038943,2.91055689 78.9066516,2.73836911 79.0677329,2.6161695 C79.2288142,2.49396989 79.4315514,2.432871 79.6759506,2.432871 L81.8088786,2.432871 L81.8088786,7.8151815 L86.3080236,7.8151815 L86.3080236,10.7479575 L81.8088786,10.7479575 L81.8088786,20.0128635 C81.8088786,20.5460982 81.9421853,20.9626815 82.2088026,21.262626 C82.47542,21.5625705 82.8309044,21.7125405 83.2752666,21.7125405 C83.5307749,21.7125405 83.744621,21.6819911 83.9168114,21.6208913 C84.0890017,21.5597914 84.2389717,21.4959153 84.3667259,21.429261 C84.49448,21.3626067 84.6083461,21.2987306 84.7083276,21.2376308 C84.8083091,21.1765309 84.9082891,21.1459815 85.0082706,21.1459815 C85.1304702,21.1459815 85.2304502,21.1765309 85.3082136,21.2376308 C85.385977,21.2987306 85.4692937,21.3903789 85.5581661,21.5125785 L86.7912651,23.5121985 C86.1913761,24.012106 85.502625,24.3898082 84.7249911,24.6453165 C83.9473572,24.9008248 83.1419628,25.028577 82.3087836,25.028577 Z M91.9779258,35.3571548 C91.8557261,35.6459902 91.6974245,35.8653908 91.503016,36.015363 C91.3086075,36.1653353 91.0114448,36.2403203 90.6115188,36.2403203 L87.5454348,36.2403203 L93.3122481,23.495535 L86.3968956,7.66521 L89.9962116,7.66521 C90.3294833,7.66521 90.5849878,7.74297222 90.7627326,7.898499 C90.9404775,8.05402578 91.0737842,8.231768 91.1626566,8.431731 L94.8119631,17.296713 C94.9341628,17.5855484 95.0396972,17.8854884 95.1285696,18.196542 C95.2174421,18.5075956 95.2952043,18.8186444 95.3618586,19.129698 C95.4507311,18.8075354 95.5479339,18.4964865 95.6534699,18.196542 C95.7590059,17.8965975 95.872872,17.5911031 95.9950716,17.2800495 L99.4277526,8.431731 C99.5166251,8.20954989 99.6638179,8.02625322 99.8693354,7.8818355 C100.074853,7.73741778 100.305362,7.66521 100.560871,7.66521 L103.860244,7.66521 L91.9779258,35.3571548 Z M109.531388,0 L109.531388,24.761961 L105.415504,24.761961 L105.415504,0 L109.531388,0 Z M120.134929,7.398594 C121.212507,7.398594 122.203975,7.57078178 123.109363,7.9151625 C124.014751,8.25954322 124.795151,8.76222045 125.450585,9.42320925 C126.106019,10.0841981 126.617028,10.8951469 126.983627,11.8560803 C127.350226,12.8170136 127.533523,13.9140163 127.533523,15.1471215 C127.533523,15.4581751 127.519637,15.7164567 127.491864,15.9219743 C127.464091,16.1274918 127.414101,16.2885707 127.341892,16.4052158 C127.269684,16.5218608 127.172481,16.6051775 127.050281,16.6551683 C126.928082,16.705159 126.772557,16.730154 126.583703,16.730154 L116.019044,16.730154 C116.141244,18.4853848 116.613372,19.7740159 117.435442,20.596086 C118.257512,21.4181561 119.346183,21.829185 120.701488,21.829185 C121.368031,21.829185 121.942916,21.7514228 122.42616,21.595896 C122.909404,21.4403692 123.331542,21.2681814 123.692586,21.0793275 C124.05363,20.8904736 124.370234,20.7182858 124.642405,20.562759 C124.914577,20.4072322 125.178413,20.32947 125.433922,20.32947 C125.600558,20.32947 125.744973,20.3627967 125.867173,20.429451 C125.989372,20.4961053 126.094907,20.5905309 126.183779,20.7127305 L127.383551,22.2124455 C126.92808,22.7456802 126.417071,23.1928129 125.850509,23.5538573 C125.283947,23.9149016 124.692399,24.2037327 124.075846,24.4203593 C123.459294,24.6369858 122.831642,24.7897331 122.192871,24.8786055 C121.5541,24.9674779 120.93478,25.0119135 120.334891,25.0119135 C119.146222,25.0119135 118.040887,24.8147307 117.018854,24.4203593 C115.996821,24.0259878 115.10811,23.4427711 114.352694,22.6706918 C113.597278,21.8986124 113.002953,20.9432479 112.5697,19.8045698 C112.136447,18.6658916 111.919823,17.346711 111.919823,15.8469885 C111.919823,14.6805377 112.108674,13.5835349 112.486382,12.5559473 C112.86409,11.5283596 113.405648,10.6340941 114.111073,9.87312375 C114.816498,9.11215345 115.677437,8.50949622 116.693916,8.065134 C117.710395,7.62077178 118.857387,7.398594 120.134929,7.398594 Z M120.218246,10.3480335 C119.018468,10.3480335 118.079767,10.6868546 117.402115,11.364507 C116.724462,12.0421594 116.291216,13.0030783 116.102362,14.2472925 L123.834226,14.2472925 C123.834226,13.7140578 123.762018,13.2113806 123.6176,12.7392458 C123.473182,12.2671109 123.251005,11.8533048 122.95106,11.497815 C122.651116,11.1423252 122.273413,10.8618258 121.817942,10.6563083 C121.362471,10.4507907 120.829244,10.3480335 120.218246,10.3480335 Z" id="iFreestyle"></path>
                <text id="Barranquilla" font-family="Lato-Regular, Lato" font-size="10.3040007" font-weight="normal" letter-spacing="0.455370338">
                    <tspan x="0" y="36.082">BARRANQUILLA</tspan>
                </text>
            </g>
        </g>
    </g>
</svg>